<svg xmlns="http://www.w3.org/2000/svg" width="1060" height="420" viewBox="0 0 1060 420" role="img">

<style>
  .title { font: 700 27px Georgia, serif; fill: #17212b; }
  .subtitle { font: 500 14px ui-sans-serif, system-ui, -apple-system, BlinkMacSystemFont, sans-serif; fill: #52606d; }
  .axis { font: 650 11px ui-sans-serif, system-ui, -apple-system, BlinkMacSystemFont, sans-serif; fill: #24313d; }
  .axis-small { font: 600 10px ui-sans-serif, system-ui, -apple-system, BlinkMacSystemFont, sans-serif; fill: #52606d; }
  .label { font: 650 13px ui-sans-serif, system-ui, -apple-system, BlinkMacSystemFont, sans-serif; fill: #17212b; }
  .small { font: 500 12px ui-sans-serif, system-ui, -apple-system, BlinkMacSystemFont, sans-serif; fill: #52606d; }
  .tiny { font: 600 10px ui-sans-serif, system-ui, -apple-system, BlinkMacSystemFont, sans-serif; fill: #5e6b76; }
  .num { font: 800 28px ui-sans-serif, system-ui, -apple-system, BlinkMacSystemFont, sans-serif; fill: #17212b; }
  .inv { fill: #ffffff; }
  .paper { fill: #fbf7ef; }
  .panel { fill: #fffdf8; stroke: #263238; stroke-width: 1.2; rx: 12; }
  .grid { stroke: #d8dee6; stroke-width: 1; }
  .tick { stroke: #b8c2cc; stroke-width: 1; }
  .bar-bg { fill: #edf2f7; }
</style>
<rect width="100%" height="100%" class="paper"/>
<text x="38" y="50" class="title">Figure 3. Fixture Decision Matrix</text>
<text x="38" y="78" class="subtitle">Three benchmark fixtures exercise the install gate: safe package, overprivileged package, and critical data-flow package.</text>
<rect x="28" y="108" width="1004" height="280" class="panel"/>
<rect x="260" y="122" width="142" height="32" fill="#0ca678" opacity="0.14" rx="9"/>
<text x="331.0" y="143" class="axis" text-anchor="middle">ALLOW</text>
<rect x="416" y="122" width="142" height="32" fill="#f59f00" opacity="0.14" rx="9"/>
<text x="487.0" y="143" class="axis" text-anchor="middle">WARN</text>
<rect x="572" y="122" width="142" height="32" fill="#e03131" opacity="0.14" rx="9"/>
<text x="643.0" y="143" class="axis" text-anchor="middle">BLOCK</text>
<text x="48" y="182" class="label">benign- pdf- skill</text>
<text x="48" y="211" class="tiny">score 100 · Trusted</text>
<rect x="260" y="156" width="142" height="54" fill="#0ca678" opacity="1" stroke="#263238" stroke-width="1" rx="12"/>
<text x="331.0" y="189" class="label inv" text-anchor="middle">MATCH</text>
<text x="331.0" y="205" class="tiny inv" text-anchor="middle">expected allow</text>
<rect x="416" y="156" width="142" height="54" fill="#f1f3f5" opacity="0.72" stroke="#263238" stroke-width="1" rx="12"/>
<text x="487.0" y="193" class="tiny" text-anchor="middle">-</text>
<rect x="572" y="156" width="142" height="54" fill="#f1f3f5" opacity="0.72" stroke="#263238" stroke-width="1" rx="12"/>
<text x="643.0" y="193" class="tiny" text-anchor="middle">-</text>
<text x="48" y="250" class="label">overprivileged- research-</text>
<text x="48" y="263" class="label">skill</text>
<text x="48" y="279" class="tiny">score 45 · Overprivileged</text>
<rect x="260" y="224" width="142" height="54" fill="#f1f3f5" opacity="0.72" stroke="#263238" stroke-width="1" rx="12"/>
<text x="331.0" y="261" class="tiny" text-anchor="middle">-</text>
<rect x="416" y="224" width="142" height="54" fill="#f59f00" opacity="1" stroke="#263238" stroke-width="1" rx="12"/>
<text x="487.0" y="257" class="label inv" text-anchor="middle">MATCH</text>
<text x="487.0" y="273" class="tiny inv" text-anchor="middle">expected warn</text>
<rect x="572" y="224" width="142" height="54" fill="#f1f3f5" opacity="0.72" stroke="#263238" stroke-width="1" rx="12"/>
<text x="643.0" y="261" class="tiny" text-anchor="middle">-</text>
<text x="48" y="318" class="label">malicious- like- writing-</text>
<text x="48" y="331" class="label">skill</text>
<text x="48" y="347" class="tiny">score 25 · Critical Risk</text>
<rect x="260" y="292" width="142" height="54" fill="#f1f3f5" opacity="0.72" stroke="#263238" stroke-width="1" rx="12"/>
<text x="331.0" y="329" class="tiny" text-anchor="middle">-</text>
<rect x="416" y="292" width="142" height="54" fill="#f1f3f5" opacity="0.72" stroke="#263238" stroke-width="1" rx="12"/>
<text x="487.0" y="329" class="tiny" text-anchor="middle">-</text>
<rect x="572" y="292" width="142" height="54" fill="#e03131" opacity="1" stroke="#263238" stroke-width="1" rx="12"/>
<text x="643.0" y="325" class="label inv" text-anchor="middle">MATCH</text>
<text x="643.0" y="341" class="tiny inv" text-anchor="middle">expected block</text>
<text x="728" y="366" class="small">Result: 3 / 3 fixture decisions matched expected allow / warn / block gates.</text>
</svg>
